<svg version="1.1" id="Layer_1" xmlns="http://www.w3.org/2000/svg" xmlns:xlink="http://www.w3.org/1999/xlink" x="0px" y="0px"
	 width="100%" viewBox="0 0 299 193" enable-background="new 0 0 299 193" xml:space="preserve">
<path fill="#FFFFFE" opacity="0" stroke="none" 
	d="
M189.000000,194.000000 
	C126.000008,194.000000 63.500015,194.000000 1.000017,194.000000 
	C1.000011,129.666687 1.000011,65.333366 1.000006,1.000034 
	C100.666634,1.000023 200.333267,1.000023 299.999939,1.000011 
	C299.999939,65.333298 299.999939,129.666595 299.999969,193.999939 
	C263.166656,194.000000 226.333328,194.000000 189.000000,194.000000 
M116.500000,88.029457 
	C97.836555,88.028778 79.173042,88.001099 60.509693,88.043304 
	C54.649345,88.056557 51.138103,91.235970 50.822346,96.561531 
	C50.521713,101.631966 54.107594,105.523643 59.679600,106.072998 
	C61.166103,106.219559 62.676075,106.143654 64.175270,106.143730 
	C113.666725,106.146057 163.158188,106.145195 212.649643,106.144806 
	C214.207138,106.144791 215.764633,106.144798 217.322128,106.144798 
	C217.766037,106.849892 218.209930,107.554985 218.653839,108.260071 
	C216.862747,109.463608 214.829849,110.421783 213.319534,111.910217 
	C202.994247,122.085800 192.783173,132.377228 182.524948,142.620956 
	C179.467163,145.674438 177.863632,149.152222 179.623383,153.427094 
	C182.458282,160.313766 189.993454,161.164139 195.916183,155.251648 
	C212.425201,138.771179 228.899216,122.255623 245.386978,105.753838 
	C252.046814,99.088348 252.014526,94.715294 245.300598,88.012016 
	C235.160400,77.887894 225.038956,67.744980 214.904083,57.615528 
	C208.304626,51.019577 201.722198,44.406239 195.079361,37.854218 
	C191.759064,34.579311 187.802536,33.804012 183.660675,35.955269 
	C179.840393,37.939503 178.122391,41.500732 179.214127,45.584644 
	C179.858978,47.996883 181.598022,50.345497 183.396698,52.182571 
	C193.654205,62.658989 204.085602,72.965034 214.433990,83.352798 
	C215.645676,84.569092 216.710602,85.931580 218.546387,88.029465 
	C184.060211,88.029465 150.780106,88.029465 116.500000,88.029457 
z"/>
<path fill="#ffffff" opacity="1.000000" stroke="none" 
	d="
M117.000000,88.029465 
	C150.780106,88.029465 184.060211,88.029465 218.546387,88.029465 
	C216.710602,85.931580 215.645676,84.569092 214.433990,83.352798 
	C204.085602,72.965034 193.654205,62.658989 183.396698,52.182571 
	C181.598022,50.345497 179.858978,47.996883 179.214127,45.584644 
	C178.122391,41.500732 179.840393,37.939503 183.660675,35.955269 
	C187.802536,33.804012 191.759064,34.579311 195.079361,37.854218 
	C201.722198,44.406239 208.304626,51.019577 214.904083,57.615528 
	C225.038956,67.744980 235.160400,77.887894 245.300598,88.012016 
	C252.014526,94.715294 252.046814,99.088348 245.386978,105.753838 
	C228.899216,122.255623 212.425201,138.771179 195.916183,155.251648 
	C189.993454,161.164139 182.458282,160.313766 179.623383,153.427094 
	C177.863632,149.152222 179.467163,145.674438 182.524948,142.620956 
	C192.783173,132.377228 202.994247,122.085800 213.319534,111.910217 
	C214.829849,110.421783 216.862747,109.463608 218.653839,108.260071 
	C218.209930,107.554985 217.766037,106.849892 217.322128,106.144798 
	C215.764633,106.144798 214.207138,106.144791 212.649643,106.144806 
	C163.158188,106.145195 113.666725,106.146057 64.175270,106.143730 
	C62.676075,106.143654 61.166103,106.219559 59.679600,106.072998 
	C54.107594,105.523643 50.521713,101.631966 50.822346,96.561531 
	C51.138103,91.235970 54.649345,88.056557 60.509693,88.043304 
	C79.173042,88.001099 97.836555,88.028778 117.000000,88.029465 
z"/>
</svg>