<svg version="1.1" id="Layer_1" xmlns="http://www.w3.org/2000/svg" xmlns:xlink="http://www.w3.org/1999/xlink" x="0px" y="0px"
	 width="100%" viewBox="0 0 299 193" enable-background="new 0 0 299 193" xml:space="preserve">
<path fill="#FFFFFE" opacity="000000" stroke="none" 
	d="
M189.000000,194.000000 
	C126.000008,194.000000 63.500015,194.000000 1.000017,194.000000 
	C1.000011,129.666687 1.000011,65.333366 1.000006,1.000034 
	C100.666634,1.000023 200.333267,1.000023 299.999939,1.000011 
	C299.999939,65.333298 299.999939,129.666595 299.999969,193.999939 
	C263.166656,194.000000 226.333328,194.000000 189.000000,194.000000 
M140.500031,88.853989 
	C121.592728,88.853989 102.685425,88.853989 82.293259,88.853989 
	C84.637260,86.371857 85.914825,84.952621 87.262054,83.602913 
	C97.503624,73.342545 107.792084,63.128742 117.995430,52.830574 
	C122.938965,47.841110 123.370522,42.326630 119.342056,38.338970 
	C115.370468,34.407631 109.813660,35.027641 104.846519,39.993591 
	C88.467552,56.368607 72.097557,72.752594 55.725151,89.134171 
	C48.969051,95.894043 48.940716,100.235954 55.586140,106.877174 
	C65.839371,117.123909 76.083900,127.379356 86.336502,137.626724 
	C92.935875,144.222717 99.445145,150.913193 106.183975,157.363693 
	C110.154411,161.164246 115.721375,161.124191 119.243622,157.726624 
	C122.921295,154.179138 123.035095,149.094284 119.485641,144.689545 
	C118.757393,143.785828 117.880661,142.999985 117.056793,142.175369 
	C106.928993,132.038239 96.791473,121.910797 86.677216,111.760178 
	C85.450752,110.529297 84.345734,109.177414 82.368088,106.970734 
	C85.502739,106.970734 87.430206,106.970718 89.357681,106.970741 
	C139.682312,106.971298 190.006943,106.981689 240.331573,106.959618 
	C246.418076,106.956947 250.080597,103.575653 250.181442,98.097473 
	C250.275436,92.991913 246.665543,89.347878 240.981216,88.895706 
	C239.490341,88.777122 237.983246,88.855141 236.483597,88.855072 
	C204.822403,88.853661 173.161224,88.853989 140.500031,88.853989 
z"/>
<path fill="#ffffff" opacity="1.000000" stroke="none" 
	d="
M141.000031,88.853989 
	C173.161224,88.853989 204.822403,88.853661 236.483597,88.855072 
	C237.983246,88.855141 239.490341,88.777122 240.981216,88.895706 
	C246.665543,89.347878 250.275436,92.991913 250.181442,98.097473 
	C250.080597,103.575653 246.418076,106.956947 240.331573,106.959618 
	C190.006943,106.981689 139.682312,106.971298 89.357681,106.970741 
	C87.430206,106.970718 85.502739,106.970734 82.368088,106.970734 
	C84.345734,109.177414 85.450752,110.529297 86.677216,111.760178 
	C96.791473,121.910797 106.928993,132.038239 117.056793,142.175369 
	C117.880661,142.999985 118.757393,143.785828 119.485641,144.689545 
	C123.035095,149.094284 122.921295,154.179138 119.243622,157.726624 
	C115.721375,161.124191 110.154411,161.164246 106.183975,157.363693 
	C99.445145,150.913193 92.935875,144.222717 86.336502,137.626724 
	C76.083900,127.379356 65.839371,117.123909 55.586140,106.877174 
	C48.940716,100.235954 48.969051,95.894043 55.725151,89.134171 
	C72.097557,72.752594 88.467552,56.368607 104.846519,39.993591 
	C109.813660,35.027641 115.370468,34.407631 119.342056,38.338970 
	C123.370522,42.326630 122.938965,47.841110 117.995430,52.830574 
	C107.792084,63.128742 97.503624,73.342545 87.262054,83.602913 
	C85.914825,84.952621 84.637260,86.371857 82.293259,88.853989 
	C102.685425,88.853989 121.592728,88.853989 141.000031,88.853989 
z"/>
</svg>